# Blender v2.93.4 OBJ File: ''
# www.blender.org
mtllib mesh.mtl
o Плоскость
v -0.574443 -0.345650 1.120596
v 0.574443 -0.345650 -0.120596
v 0.574443 1.345650 -0.120596
v -0.574443 1.345650 1.120596
v 0.772070 -0.336719 1.312232
v -0.397070 -0.336719 0.500268
v -0.397070 1.086719 0.500268
v 0.772070 1.086719 1.312232
v -0.647360 -0.280627 1.208710
v 0.647359 -0.280627 1.416290
v 0.647359 1.030627 1.416290
v -0.647360 1.030627 1.208710
v 0.531250 -0.374747 1.499747
v 0.531250 -0.374747 0.375253
v 0.531250 0.749747 0.375253
v 0.531250 0.749747 1.499747
v 1.213446 -0.277680 1.655063
v 0.349054 -0.277680 0.594937
v 0.349054 1.090180 0.594937
v 1.213446 1.090180 1.655063
v -0.125000 -0.280642 1.155642
v -0.125000 -0.280642 -0.155642
v -0.125000 1.030642 -0.155642
v -0.125000 1.030642 1.155642
v 0.489446 -0.427475 0.401773
v -0.864446 -0.427475 0.348227
v -0.864446 0.927475 0.348227
v 0.489446 0.927475 0.401773
v -0.209286 -0.329323 1.381130
v -0.665714 -0.329323 0.181370
v -0.665714 0.954323 0.181370
v -0.209286 0.954323 1.381130
v 1.062480 -0.340212 0.350070
v -0.437480 -0.340212 -0.537570
v -0.437480 1.402712 -0.537570
v 1.062480 1.402712 0.350070
vt 0.150039 0.800078
vt 0.199961 0.800078
vt 0.199961 0.899922
vt 0.150039 0.899922
vt 0.150039 0.800078
vt 0.199961 0.800078
vt 0.199961 0.899922
vt 0.150039 0.899922
vt 0.150039 0.800078
vt 0.199961 0.800078
vt 0.199961 0.899922
vt 0.150039 0.899922
vt 0.150039 0.800078
vt 0.199961 0.800078
vt 0.199961 0.899922
vt 0.150039 0.899922
vt 0.150039 0.800078
vt 0.199961 0.800078
vt 0.199961 0.899922
vt 0.150039 0.899922
vt 0.150039 0.800078
vt 0.199961 0.800078
vt 0.199961 0.899922
vt 0.150039 0.899922
vt 0.150039 0.800078
vt 0.199961 0.800078
vt 0.199961 0.899922
vt 0.150039 0.899922
vt 0.150039 0.800078
vt 0.199961 0.800078
vt 0.199961 0.899922
vt 0.150039 0.899922
vt 0.150039 0.800078
vt 0.199961 0.800078
vt 0.199961 0.899922
vt 0.150039 0.899922
vn 0.7339 0.0000 0.6793
vn 0.5704 0.0000 -0.8214
vn -0.1583 0.0000 0.9874
vn 1.0000 0.0000 0.0000
vn 0.7750 0.0000 -0.6319
vn 0.0395 0.0000 -0.9992
vn 0.9346 0.0000 -0.3556
vn 0.5093 0.0000 -0.8606
usemtl texture
s off
f 1/1/1 2/2/1 3/3/1 4/4/1
f 5/5/2 6/6/2 7/7/2 8/8/2
f 9/9/3 10/10/3 11/11/3 12/12/3
f 13/13/4 14/14/4 15/15/4 16/16/4
f 17/17/5 18/18/5 19/19/5 20/20/5
f 21/21/4 22/22/4 23/23/4 24/24/4
f 25/25/6 26/26/6 27/27/6 28/28/6
f 29/29/7 30/30/7 31/31/7 32/32/7
f 33/33/8 34/34/8 35/35/8 36/36/8
