# Blender v2.83.1 OBJ File: ''
# www.blender.org
mtllib mesh.mtl
o Плоскость
v -1.000000 -0.250000 0.000000
v 0.000000 -0.250000 0.000000
v 0.000000 0.750000 -1.000000
v -2.000000 -0.250000 0.000000
v 0.000000 0.750000 0.000000
v -6.000000 0.750000 -2.000000
v 0.000000 -0.250000 -1.000000
v -1.000000 0.750000 0.000000
v -2.000000 0.750000 0.000000
v -1.000000 1.750000 0.000000
v -2.000000 2.437500 -2.000000
v 0.000000 -0.250000 -2.000000
v -5.000000 -0.250000 0.000000
v -3.000000 -0.250000 0.000000
v -3.000000 0.750000 0.000000
v -4.000000 0.750000 0.000000
v -3.000000 1.750000 0.000000
v -2.000000 -0.250000 -4.000000
v -1.000000 2.437500 -2.000000
v -4.000000 -0.250000 0.000000
v 0.000000 2.437500 -2.000000
v -1.000000 0.750000 -4.000000
v 0.000000 0.750000 -2.000000
v -1.000000 -0.250000 -4.000000
v 0.000000 -0.250000 -3.000000
v 0.000000 0.750000 -3.000000
v -6.000000 -0.250000 -2.000000
v -5.000000 0.750000 0.000000
v -2.000000 2.093750 -1.000000
v 0.000000 -0.250000 -4.000000
v -6.000000 1.750000 0.000000
v 0.000000 0.750000 -4.000000
v -1.000000 1.750000 -4.000000
v 0.000000 1.750000 -4.000000
v -3.000000 -0.250000 -4.000000
v -4.000000 -0.250000 -4.000000
v -2.000000 0.750000 -4.000000
v -3.000000 2.437500 -2.000000
v -6.000000 0.750000 -4.000000
v -3.000000 0.750000 -4.000000
v -4.000000 1.750000 -4.000000
v -5.000000 -0.250000 -4.000000
v -5.000000 0.750000 -4.000000
v -6.000000 0.750000 -3.000000
v -6.000000 -0.250000 -3.000000
v -6.000000 2.437500 -2.000000
v -6.000000 2.093750 -3.000000
v -6.000000 -0.250000 -4.000000
v -4.000000 0.750000 -4.000000
v 0.000000 2.093750 -1.000000
v -6.000000 -0.250000 -1.000000
v -6.000000 0.750000 0.000000
v -6.000000 -0.250000 0.000000
v -4.000000 2.093750 -1.000000
v -3.000000 2.093750 -3.000000
v -6.000000 0.750000 -1.000000
v -5.000000 1.750000 -4.000000
v -6.000000 1.750000 -4.000000
v 0.000000 2.093750 -3.000000
v -2.000000 1.750000 0.000000
v -3.000000 2.093750 -1.000000
v -2.000000 2.093750 -3.000000
v -1.000000 2.093750 -3.000000
v -3.000000 1.750000 -4.000000
v -2.000000 1.750000 -4.000000
v -4.000000 1.750000 0.000000
v -5.000000 1.750000 0.000000
v -5.000000 2.093750 -3.000000
v -6.000000 2.093750 -1.000000
v -4.000000 2.093750 -3.000000
v -5.000000 2.093750 -1.000000
v -5.000000 2.437500 -2.000000
v -4.000000 2.437500 -2.000000
v 0.000000 1.750000 0.000000
v -1.000000 2.093750 -1.000000
vt 0.300039 0.500078
vt 0.349961 0.500078
vt 0.349961 0.599922
vt 0.300039 0.599922
vt 0.300039 0.600078
vt 0.349961 0.600078
vt 0.349961 0.699922
vt 0.300039 0.699922
vt 0.300039 0.500078
vt 0.349961 0.500078
vt 0.349961 0.599922
vt 0.300039 0.599922
vt 0.300039 0.600078
vt 0.349961 0.600078
vt 0.349961 0.699922
vt 0.300039 0.699922
vt 0.300039 0.500078
vt 0.349961 0.500078
vt 0.349961 0.599922
vt 0.300039 0.599922
vt 0.300039 0.600078
vt 0.349961 0.600078
vt 0.349961 0.699922
vt 0.300039 0.699922
vt 0.300039 0.500078
vt 0.349961 0.500078
vt 0.349961 0.599922
vt 0.300039 0.599922
vt 0.300039 0.600078
vt 0.349961 0.600078
vt 0.349961 0.699922
vt 0.300039 0.699922
vt 0.300039 0.500078
vt 0.349961 0.500078
vt 0.349961 0.599922
vt 0.300039 0.599922
vt 0.300039 0.600078
vt 0.349961 0.600078
vt 0.349961 0.699922
vt 0.300039 0.699922
vt 0.300039 0.500078
vt 0.349961 0.500078
vt 0.349961 0.599922
vt 0.300039 0.599922
vt 0.300039 0.600078
vt 0.349961 0.600078
vt 0.349961 0.699922
vt 0.300039 0.699922
vt 0.300039 0.500078
vt 0.349961 0.500078
vt 0.349961 0.599922
vt 0.300039 0.599922
vt 0.300039 0.600078
vt 0.349961 0.600078
vt 0.349961 0.699922
vt 0.300039 0.699922
vt 0.300039 0.500078
vt 0.349961 0.500078
vt 0.349961 0.599922
vt 0.300039 0.599922
vt 0.300039 0.600078
vt 0.349961 0.600078
vt 0.349961 0.699922
vt 0.300039 0.699922
vt 0.300039 0.500078
vt 0.349961 0.500078
vt 0.349961 0.599922
vt 0.300039 0.599922
vt 0.300039 0.600078
vt 0.349961 0.600078
vt 0.349961 0.699922
vt 0.300039 0.699922
vt 0.300039 0.500078
vt 0.349961 0.500078
vt 0.349961 0.599922
vt 0.300039 0.599922
vt 0.300039 0.600078
vt 0.349961 0.600078
vt 0.349961 0.699922
vt 0.300039 0.699922
vt 0.300039 0.500078
vt 0.349961 0.500078
vt 0.349961 0.599922
vt 0.300039 0.599922
vt 0.300039 0.600078
vt 0.349961 0.600078
vt 0.349961 0.699922
vt 0.300039 0.699922
vt 0.300039 0.500078
vt 0.349961 0.500078
vt 0.349961 0.599922
vt 0.300039 0.599922
vt 0.300039 0.600078
vt 0.349961 0.600078
vt 0.349961 0.699922
vt 0.300039 0.699922
vt 0.300039 0.500078
vt 0.349961 0.500078
vt 0.349961 0.599922
vt 0.300039 0.599922
vt 0.300039 0.600078
vt 0.349961 0.600078
vt 0.349961 0.699922
vt 0.300039 0.699922
vt 0.300039 0.500078
vt 0.349961 0.500078
vt 0.349961 0.599922
vt 0.300039 0.599922
vt 0.300039 0.600078
vt 0.349961 0.600078
vt 0.349961 0.699922
vt 0.300039 0.699922
vt 0.300039 0.500078
vt 0.349961 0.500078
vt 0.349961 0.599922
vt 0.300039 0.599922
vt 0.300039 0.600078
vt 0.349961 0.600078
vt 0.349961 0.699922
vt 0.300039 0.699922
vt 0.300039 0.500078
vt 0.349961 0.500078
vt 0.349961 0.599922
vt 0.300039 0.599922
vt 0.300039 0.600078
vt 0.349961 0.600078
vt 0.349961 0.699922
vt 0.300039 0.699922
vt 0.300039 0.500078
vt 0.349961 0.500078
vt 0.349961 0.599922
vt 0.300039 0.599922
vt 0.300039 0.600078
vt 0.349961 0.600078
vt 0.349961 0.699922
vt 0.300039 0.699922
vt 0.300039 0.500078
vt 0.349961 0.500078
vt 0.349961 0.599922
vt 0.300039 0.599922
vt 0.300039 0.600078
vt 0.349961 0.600078
vt 0.349961 0.699922
vt 0.300039 0.699922
vt 0.300039 0.500078
vt 0.349961 0.500078
vt 0.349961 0.599922
vt 0.300039 0.599922
vt 0.300039 0.600078
vt 0.349961 0.600078
vt 0.349961 0.699922
vt 0.300039 0.699922
vt 0.300039 0.500078
vt 0.349961 0.500078
vt 0.349961 0.599922
vt 0.300039 0.599922
vt 0.300039 0.600078
vt 0.349961 0.600078
vt 0.349961 0.699922
vt 0.300039 0.699922
vt 0.300039 0.500078
vt 0.349961 0.500078
vt 0.349961 0.599922
vt 0.300039 0.599922
vt 0.300039 0.600078
vt 0.349961 0.600078
vt 0.300039 0.699922
vt 0.300039 0.500078
vt 0.349961 0.500078
vt 0.349961 0.599922
vt 0.300039 0.599922
vt 0.300039 0.600078
vt 0.349961 0.600078
vt 0.349961 0.699922
vt 0.300039 0.500078
vt 0.349961 0.500078
vt 0.349961 0.599922
vt 0.300039 0.599922
vt 0.300039 0.600078
vt 0.349961 0.600078
vt 0.349961 0.699922
vt 0.300039 0.699922
vt 0.300039 0.500078
vt 0.349961 0.500078
vt 0.349961 0.599922
vt 0.300039 0.599922
vt 0.300039 0.600078
vt 0.349961 0.600078
vt 0.349961 0.699922
vt 0.300039 0.699922
vt 0.300039 0.500078
vt 0.349961 0.500078
vt 0.349961 0.599922
vt 0.300039 0.599922
vt 0.300039 0.600078
vt 0.349961 0.600078
vt 0.349961 0.699922
vt 0.300039 0.699922
vt 0.300039 0.500078
vt 0.349961 0.500078
vt 0.349961 0.599922
vt 0.300039 0.599922
vt 0.300039 0.600078
vt 0.349961 0.600078
vt 0.349961 0.699922
vt 0.300039 0.699922
vt 0.300039 0.500078
vt 0.349961 0.500078
vt 0.349961 0.599922
vt 0.300039 0.599922
vt 0.300039 0.600078
vt 0.349961 0.600078
vt 0.300039 0.500078
vt 0.349961 0.500078
vt 0.349961 0.599922
vt 0.300039 0.599922
vt 0.300039 0.600078
vt 0.349961 0.600078
vt 0.300039 0.500078
vt 0.349961 0.500078
vt 0.349961 0.599922
vt 0.300039 0.599922
vt 0.300039 0.600078
vt 0.349961 0.600078
vt 0.300039 0.500078
vt 0.349961 0.500078
vt 0.349961 0.599922
vt 0.300039 0.599922
vt 0.300039 0.600078
vt 0.349961 0.600078
vt 0.300039 0.500078
vt 0.349961 0.500078
vt 0.349961 0.599922
vt 0.300039 0.599922
vt 0.300039 0.600078
vt 0.349961 0.600078
vt 0.300039 0.500078
vt 0.349961 0.500078
vt 0.349961 0.599922
vt 0.300039 0.599922
vt 0.300039 0.600078
vt 0.349961 0.600078
vn 0.0000 0.0000 1.0000
vn 1.0000 0.0000 0.0000
vn 0.0000 0.0000 -1.0000
vn -1.0000 0.0000 0.0000
vn 0.0000 0.9457 -0.3251
vn 0.0000 0.9457 0.3251
usemtl texture
s off
f 1/1/1 2/2/1 5/3/1 8/4/1
f 8/5/1 5/6/1 74/7/1 10/8/1
f 4/9/1 1/10/1 8/11/1 9/12/1
f 9/13/1 8/14/1 10/15/1 60/16/1
f 14/17/1 4/18/1 9/19/1 15/20/1
f 15/21/1 9/22/1 60/23/1 17/24/1
f 20/25/1 14/26/1 15/27/1 16/28/1
f 16/29/1 15/30/1 17/31/1 66/32/1
f 2/33/2 7/34/2 3/35/2 5/36/2
f 5/37/2 3/38/2 50/39/2 74/40/2
f 7/41/2 12/42/2 23/43/2 3/44/2
f 3/45/2 23/46/2 21/47/2 50/48/2
f 12/49/2 25/50/2 26/51/2 23/52/2
f 23/53/2 26/54/2 59/55/2 21/56/2
f 25/57/2 30/58/2 32/59/2 26/60/2
f 26/61/2 32/62/2 34/63/2 59/64/2
f 13/65/1 20/66/1 16/67/1 28/68/1
f 28/69/1 16/70/1 66/71/1 67/72/1
f 53/73/1 13/74/1 28/75/1 52/76/1
f 52/77/1 28/78/1 67/79/1 31/80/1
f 30/81/3 24/82/3 22/83/3 32/84/3
f 32/85/3 22/86/3 33/87/3 34/88/3
f 24/89/3 18/90/3 37/91/3 22/92/3
f 22/93/3 37/94/3 65/95/3 33/96/3
f 18/97/3 35/98/3 40/99/3 37/100/3
f 37/101/3 40/102/3 64/103/3 65/104/3
f 35/105/3 36/106/3 49/107/3 40/108/3
f 40/109/3 49/110/3 41/111/3 64/112/3
f 42/113/3 48/114/3 39/115/3 43/116/3
f 43/117/3 39/118/3 58/119/3 57/120/3
f 36/121/3 42/122/3 43/123/3 49/124/3
f 49/125/3 43/126/3 57/127/3 41/128/3
f 48/129/4 45/130/4 44/131/4 39/132/4
f 39/133/4 44/134/4 47/135/4 58/136/4
f 45/137/4 27/138/4 6/139/4 44/140/4
f 44/141/4 6/142/4 46/143/4 47/144/4
f 27/145/4 51/146/4 56/147/4 6/148/4
f 6/149/4 56/150/4 69/151/4 46/152/4
f 51/153/4 53/154/4 52/155/4 56/156/4
f 56/157/4 52/158/4 31/159/4 69/160/4
f 57/161/5 58/162/5 47/163/5 68/164/5
f 68/165/5 47/166/5 46/143/5 72/167/5
f 34/168/5 33/169/5 63/170/5 59/171/5
f 59/172/5 63/173/5 19/174/5 21/56/5
f 33/175/5 65/176/5 62/177/5 63/178/5
f 63/179/5 62/180/5 11/181/5 19/182/5
f 65/183/5 64/184/5 55/185/5 62/186/5
f 62/187/5 55/188/5 38/189/5 11/190/5
f 64/191/5 41/192/5 70/193/5 55/194/5
f 55/195/5 70/196/5 73/197/5 38/198/5
f 41/199/5 57/200/5 68/201/5 70/202/5
f 70/203/5 68/204/5 72/205/5 73/206/5
f 31/207/6 67/208/6 71/209/6 69/210/6
f 69/211/6 71/212/6 72/205/6 46/152/6
f 67/213/6 66/214/6 54/215/6 71/216/6
f 71/217/6 54/218/6 73/197/6 72/167/6
f 66/219/6 17/220/6 61/221/6 54/222/6
f 54/223/6 61/224/6 38/189/6 73/206/6
f 17/225/6 60/226/6 29/227/6 61/228/6
f 61/229/6 29/230/6 11/181/6 38/198/6
f 60/231/6 10/232/6 75/233/6 29/234/6
f 29/235/6 75/236/6 19/174/6 11/190/6
f 10/237/6 74/238/6 50/239/6 75/240/6
f 75/241/6 50/242/6 21/47/6 19/182/6
