# Blender v2.83.1 OBJ File: ''
# www.blender.org
mtllib mesh.mtl
o Cube.001
v 0.000000 -0.238175 0.531250
v 0.000000 -0.238175 -0.468750
v 0.000000 0.761825 -0.468750
v 0.000000 0.761825 0.531250
v 0.000000 1.761825 -0.468750
v 0.000000 1.761825 0.531250
v 0.070873 0.949014 0.491902
v -0.675194 1.360183 -0.531092
v -0.008373 2.512136 -0.554402
v 0.737694 2.100968 0.468592
v 0.500000 -0.238175 0.000000
v -0.500000 -0.238175 0.000000
v -0.500000 0.761825 0.000000
v 0.500000 0.761825 0.000000
v -0.500000 1.761825 0.000000
v 0.500000 1.761825 0.000000
v 0.642083 1.071319 1.082396
v 0.444004 0.892148 -0.874637
v -0.767083 2.452331 -0.894895
v -0.569004 2.631502 1.062137
v -0.803565 3.452173 0.511324
v -0.617524 1.197374 1.239993
v 0.928565 0.758977 -0.511323
v 0.742524 3.013776 -1.239992
v -0.948611 0.781439 -0.575672
v -0.511853 1.785215 1.891492
v 1.011111 3.742211 0.825673
v 0.574353 2.738434 -1.641492
v 0.626345 3.858528 -1.344100
v -0.856913 5.114275 -1.222838
v -0.813845 4.977622 0.719102
v 0.669413 3.721874 0.597840
v 1.082764 4.706503 0.668787
v 0.699507 3.373803 -1.144111
v -0.770265 2.129646 0.081214
v -0.387006 3.462347 1.894113
v -0.769806 3.267593 -1.291089
v -0.906632 2.008423 0.500044
v 0.332306 3.443557 1.603590
v 0.469132 4.702728 -0.187543
v 1.809915 2.754233 0.015095
v -0.005925 2.125306 1.105852
v -0.997415 4.019417 0.547406
v 0.818425 4.648344 -0.543351
v 0.974702 2.040787 -0.899354
v 0.494894 3.428955 0.671351
v 0.212798 4.982862 -0.788145
v 0.692606 3.594695 -2.358850
v 0.448291 5.167334 -1.299093
v 0.052577 3.526557 -0.592832
v -0.198291 4.293816 1.049095
v 0.197423 5.934594 0.342834
v -1.469418 4.178872 -0.510743
v 0.040432 3.321494 0.508022
v 1.094418 5.032278 0.385745
v -0.415432 5.889656 -0.633020
v 0.187500 1.064709 -1.634616
v 0.187500 1.064708 1.447116
v 0.187500 4.146441 1.447117
v 0.187500 4.146441 -1.634615
v -1.270926 1.021675 -1.178989
v 1.458426 1.021675 0.428989
v 1.458426 4.189474 0.428990
v -1.270926 4.189474 -1.178988
v -0.125000 4.912056 -0.881016
v -0.125000 4.912056 0.506018
v -0.125000 6.299093 0.506018
v -0.125000 6.299093 -0.881016
v 0.315954 4.108151 0.934825
v -1.190954 4.108151 -0.372323
v -1.190954 6.102998 -0.372323
v 0.315954 6.102998 0.934825
v -1.535380 2.970968 0.112105
v 0.535380 2.970968 0.325397
v 0.535380 5.052681 0.325397
v -1.535380 5.052681 0.112105
vt 0.250039 0.800078
vt 0.299961 0.800078
vt 0.299961 0.899922
vt 0.250039 0.899922
vt 0.250039 0.900078
vt 0.299961 0.900078
vt 0.299961 0.999922
vt 0.250039 0.999922
vt 0.200039 0.900078
vt 0.249961 0.900078
vt 0.249961 0.999922
vt 0.200039 0.999922
vt 0.250039 0.800078
vt 0.299961 0.800078
vt 0.299961 0.899922
vt 0.250039 0.899922
vt 0.250039 0.900078
vt 0.299961 0.900078
vt 0.299961 0.999922
vt 0.250039 0.999922
vt 0.200039 0.900078
vt 0.249961 0.900078
vt 0.249961 0.999922
vt 0.200039 0.999922
vt 0.200039 0.900078
vt 0.249961 0.900078
vt 0.249961 0.999922
vt 0.200039 0.999922
vt 0.200039 0.900078
vt 0.249961 0.900078
vt 0.249961 0.999922
vt 0.200039 0.999922
vt 0.200039 0.900078
vt 0.249961 0.900078
vt 0.249961 0.999922
vt 0.200039 0.999922
vt 0.200039 0.900078
vt 0.249961 0.900078
vt 0.249961 0.999922
vt 0.200039 0.999922
vt 0.200039 0.900078
vt 0.249961 0.900078
vt 0.249961 0.999922
vt 0.200039 0.999922
vt 0.200039 0.900078
vt 0.249961 0.900078
vt 0.249961 0.999922
vt 0.200039 0.999922
vt 0.200039 0.900078
vt 0.249961 0.900078
vt 0.249961 0.999922
vt 0.200039 0.999922
vt 0.200039 0.900078
vt 0.249961 0.900078
vt 0.249961 0.999922
vt 0.200039 0.999922
vt 0.200039 0.900078
vt 0.249961 0.900078
vt 0.249961 0.999922
vt 0.200039 0.999922
vt 0.200039 0.900078
vt 0.249961 0.900078
vt 0.249961 0.999922
vt 0.200039 0.999922
vt 0.200039 0.900078
vt 0.249961 0.900078
vt 0.249961 0.999922
vt 0.200039 0.999922
vt 0.200039 0.900078
vt 0.249961 0.900078
vt 0.249961 0.999922
vt 0.200039 0.999922
vt 0.200039 0.900078
vt 0.249961 0.900078
vt 0.249961 0.999922
vt 0.200039 0.999922
vt 0.200039 0.900078
vt 0.249961 0.900078
vt 0.249961 0.999922
vt 0.200039 0.999922
vn 1.0000 0.0000 0.0000
vn 0.6596 -0.3947 -0.6397
vn 0.0000 0.0000 -1.0000
vn 0.7836 0.6065 -0.1348
vn 0.7555 0.2571 0.6026
vn -0.8096 0.5797 -0.0925
vn 0.6475 0.7610 0.0392
vn -0.7464 0.6016 -0.2845
vn -0.8229 0.4925 0.2834
vn -0.3512 -0.4292 -0.8321
vn -0.9659 -0.2472 -0.0765
vn -0.9667 0.1412 -0.2137
vn -0.4042 0.3105 0.8604
vn -1.0000 0.0000 0.0000
vn -0.5076 -0.0000 0.8616
vn 0.6553 0.0000 -0.7554
vn -0.1025 -0.0000 0.9947
usemtl customTileset
s 1
f 1/1/1 2/2/1 3/3/1 4/4/1
f 4/5/1 3/6/1 5/7/1 6/8/1
f 7/9/2 8/10/2 9/11/2 10/12/2
f 11/13/3 12/14/3 13/15/3 14/16/3
f 14/17/3 13/18/3 15/19/3 16/20/3
f 17/21/4 18/22/4 19/23/4 20/24/4
f 21/25/5 22/26/5 23/27/5 24/28/5
f 25/29/6 26/30/6 27/31/6 28/32/6
f 29/33/7 30/34/7 31/35/7 32/36/7
f 33/37/8 34/38/8 35/39/8 36/40/8
f 37/41/9 38/42/9 39/43/9 40/44/9
f 41/45/10 42/46/10 43/47/10 44/48/10
f 45/49/11 46/50/11 47/51/11 48/52/11
f 49/53/12 50/54/12 51/55/12 52/56/12
f 53/57/13 54/58/13 55/59/13 56/60/13
f 57/61/14 58/62/14 59/63/14 60/64/14
f 61/65/15 62/66/15 63/67/15 64/68/15
f 65/69/14 66/70/14 67/71/14 68/72/14
f 69/73/16 70/74/16 71/75/16 72/76/16
f 73/77/17 74/78/17 75/79/17 76/80/17
